/* XPM */
static char *pdf2img_c_icon_xpm[] = {"24 24 124 2","     c None",".    c #484848","+     c #505050","@     c #818181","#     c #4E4E4E","$     c #484848","%     c #505050","&     c #3D3D3E","*     c #494949","=     c #808080","-     c #575757",";     c #383839",">     c #828282",",     c #4E4E4E","'     c #494949",")     c #464646","!     c #4A4A4A","~     c #4C4C4C","{     c #505050","]     c #4E4E4E","^     c #F9C940","/     c #4B4B4B","(     c #F8C73D","_     c #494949",":     c #4D4D4D","<     c #515151","[     c #525252","}     c #535353","|     c #818181","1     c #545454","2     c #FACA42","3     c #F8C73E","4     c #F8C83E","5     c #F7C63C","6     c #58554C","7     c #373838","8     c #4F4F4F","9     c #59564D","0     c #484848","a     c #383839","b     c #373738","c     c #3F3F3F","d     c #39393A","e     c #F6C335","f     c #FACB43","g     c #565656","h     c #F6C438","i     c #8E7D49","j     c #575757","k     c #8D7B47","l     c #C2A041","m     c #363637","n     c #F7C73C","o     c #383838","p     c #8D7B48","q     c #404141","r     c #FCCE48","s     c #FBCC45","t     c #474747","u     c #F6C333","v     c #C4A346","w     c #828282","x     c #907F4D","y     c #F2C749","z     c #FCCD47","A     c #FBCC44","B     c #363738","C     c #F9C93F","D     c #F9CA40","E     c #3A3B3B","F     c #F7C63B","G     c #EBB82A","H     c #8B763A","I     c #F7C53B","J     c #F6C232","K     c #6F664D","L     c #DBB547","M     c #F9CA41","N     c #F8C83F","O     c #F7C53A","P     c #F6C437","Q     c #D6AC36","R     c #6B6145","S     c #C3A243","T     c #C2A142","U     c #8D7A46","V     c #F6C43A","W     c #F6C439","X     c #565249","Y     c #F6C029","Z     c #827349","`     c #F8C93F"," .    c #806F41","..    c #B89A44","+.    c #E2B63D","@.    c #E1B53B","#.    c #F6C12E","$.    c #B59334","%.    c #555555","&.    c #464646","*.    c #B58F25","=.    c #FDD04A","-.    c #3E3F3F",";.    c #615A49",">.    c #5E5742",",.    c #746438","'.    c #414142",").    c #BDA24F","!.    c #F5BD1C","~.    c #EAB41A","{.    c #7F6C36","].    c #FED24C","^.    c #766A47","/.    c #7F6E3D","(.    c #EAB621","_.    c #817247",":.    c #ECBE3D","<.    c #817146","[.    c #EDC03E","}.    c #B79841","|.    c #56534A","1.    c #56524A","2.    c #B6953A","3.    c #F5C029","  j g %.1 } } [ < { +     # ] : ~ ~ >           ","j g %.%.1 } [ [ < { { + # ] ] : ~ ~ w @         ","g %.%.%.1 } [ [ < { { { ] ] ] : ~ ~ w | @       ","%.%.%.1 } } [ [ { { { 8 ] ] ] : ~ ~ w | | @     ","1 1 1 } } [ [ < { { { 9 9 ] ] : ~ ~ w | | | @   ","} } } } [ [ [ { { { { p k ] : ~ ~ ~ | | | | | = ","} [ [ [ [ [ { { { { 8 S T ] : ~ ~ ~ '.E d 7 b m ","[ [ [ [ < { { { { 8 9 ` n 6 ~ ~ ~ / / q d o b B ","< < < { { { { { 8 ] i D ( U ~ ~ ~ / / ! c a 7 7 ","{ { { { { { { 8 ] ] v ^ ( l ~ ~ / / / ! _ -.a a ","+ { { { { ).].=.r s f ^ 3 F W u Y !.*.! _ _ c ; ","  + { 8 ] ] x y z A 2 C ( I h J G H ! _ _ _ *   ","  # ] ] ] ] ] K L f M N ( O P Q R ! _ _ _ _ .   ","# ] ] ] ] ] ] ] 6 2 ^ 3 5 V e X ! ! _ _ _ _ 0 . ","] ] ] ] ] : : ~ Z ^ 4 ( I h J  .! _ _ _ _ 0 0 0 ",": : : : : ~ ~ ~ ..4 ( +.@.e #.$._ _ _ _ 0 0 0 0 ","~ ~ ~ ~ ~ ~ ~ ~ [.5 }.|.1.2.3.(._ _ _ _ 0 0 0 0 ","~ ~ ~ ~ ~ ~ ~ _.:.<./ / ! ! /.~.{._ _ 0 0 0 0 t ","~ ~ ~ ~ / / / ^.;./ ! ! _ _ _ >.,._ 0 0 0 0 t t ","/ / / / / / / / ! ! ! _ _ _ _ _ _ 0 0 0 0 t t t ","/ / / / / ! ! ! _ _ _ _ _ _ _ 0 0 0 0 0 t t t t ","! ! ! ! ! _ _ _ _ _ _ _ _ _ 0 0 0 0 0 t t t t t ","_ _ _ _ _ _ _ _ _ _ _ * . 0 0 0 0 0 t t t t t &.","  _ _ _ _ _ _ _ _ _ .     . 0 0 0 t t t t t &.  "};